<svg width="32" height="32" viewBox="0 0 32 32" fill="none" xmlns="http://www.w3.org/2000/svg">
<path d="M19.6 8.40006C19.3557 8.64929 19.2188 8.98438 19.2188 9.33339C19.2188 9.68239 19.3557 10.0175 19.6 10.2667L21.7333 12.4001C21.9826 12.6444 22.3177 12.7812 22.6667 12.7812C23.0157 12.7812 23.3508 12.6444 23.6 12.4001L28.6267 7.37339C29.2971 8.85497 29.5001 10.5057 29.2086 12.1056C28.9171 13.7055 28.1449 15.1785 26.995 16.3284C25.8451 17.4783 24.3721 18.2505 22.7722 18.542C21.1723 18.8335 19.5216 18.6305 18.04 17.9601L8.82666 27.1734C8.29622 27.7038 7.5768 28.0018 6.82666 28.0018C6.07651 28.0018 5.35709 27.7038 4.82666 27.1734C4.29622 26.643 3.99823 25.9235 3.99823 25.1734C3.99823 24.4232 4.29622 23.7038 4.82666 23.1734L14.04 13.9601C13.3695 12.4785 13.1665 10.8277 13.458 9.22786C13.7495 7.62798 14.5217 6.15493 15.6716 5.00502C16.8215 3.8551 18.2946 3.08295 19.8945 2.79144C21.4943 2.49994 23.1451 2.70294 24.6267 3.37339L19.6133 8.38672L19.6 8.40006Z" stroke="#2563EB" stroke-width="2.66667" stroke-linecap="round" stroke-linejoin="round"/>
</svg>
